<?xml version="1.0" encoding="utf-8"?>
<svg version="1.0" id="Layer_1" xmlns="http://www.w3.org/2000/svg" xmlns:xlink="http://www.w3.org/1999/xlink" x="0px" y="0px"
	 width="64px" height="64px" viewBox="0 0 64 64" enable-background="new 0 0 64 64" xml:space="preserve">
<path fill="#C77D55" d="M8.4,53.4h45c1.1,0,2,0.9,2,2l0,0c0,1.1-0.9,2-2,2h-45c-1.1,0-2-0.9-2-2l0,0C6.4,54.3,7.3,53.4,8.4,53.4z"/>
<path fill="#45322B" stroke="#C77D55" stroke-width="3.5" d="M8.4,15c0-1.2,0-1.9,0-2.5c0-0.6,0.1-0.8,0.2-0.9
	c0.2-0.4,0.5-0.7,0.9-0.9c0.1-0.1,0.3-0.1,0.9-0.2c0.6,0,1.3,0,2.5,0h31.9c1.2,0,1.9,0,2.5,0c0.6,0,0.8,0.1,0.9,0.2
	c0.4,0.2,0.7,0.5,0.9,0.9l1.8-0.9l-1.8,0.9c0.1,0.1,0.1,0.3,0.2,0.9c0,0.6,0,1.3,0,2.5v11.9c0,5.9,0,8.3-0.6,10.3
	c-1.4,4.6-5,8.2-9.6,9.6c-2,0.6-4.4,0.6-10.3,0.6s-8.3,0-10.3-0.6c-4.6-1.4-8.2-5-9.6-9.6c-0.6-2-0.6-4.4-0.6-10.3V15z"/>
<path fill="none" stroke="#C77D55" stroke-width="3.5" d="M49.4,10.4h8.2c1.1,0,2,0.9,2,2v4.8c0,2.5-1.5,4.7-3.7,5.6l-6.5,2.8V10.4z
	"/>
</svg>
