<?xml version="1.0" encoding="utf-8"?>
<!-- Generator: Adobe Illustrator 25.0.1, SVG Export Plug-In . SVG Version: 6.00 Build 0)  -->
<svg version="1.0" id="Layer_1" xmlns="http://www.w3.org/2000/svg" xmlns:xlink="http://www.w3.org/1999/xlink" x="0px" y="0px"
	 width="100px" height="100px" viewBox="0 0 100 100" enable-background="new 0 0 100 100" xml:space="preserve">
<path fill-rule="evenodd" clip-rule="evenodd" fill="#5382A1" d="M37.3,76c0,0-3.5,2.4,2.4,2.9c8.2,0.6,11.8,0.6,20-1.2
	c0,0,2.4,1.2,5.3,2.4C46.7,88.4,23.2,80.1,37.3,76 M35.6,65.4c0,0-4.1,2.9,2.4,3.5c8.2,0.6,14.7,1.2,25.3-1.2c0,0,1.8,1.8,4.1,2.4
	C44.4,76.6,19.1,70.7,35.6,65.4"/>
<path fill-rule="evenodd" clip-rule="evenodd" fill="#E76F00" d="M54.4,48.4c4.7,5.3-1.2,10-1.2,10s11.8-5.9,6.5-13.5
	c-5.3-7.1-8.8-10.6,11.8-22.4C71.5,22.5,39.1,30.1,54.4,48.4"/>
<path fill-rule="evenodd" clip-rule="evenodd" fill="#5382A1" d="M79.1,83.7c0,0,2.9,2.4-2.9,4.1c-10.6,2.9-44.7,4.1-54.1,0
	c-3.5-1.2,2.9-3.5,4.7-4.1c2.4-0.6,3.5-0.6,3.5-0.6c-3.5-2.4-24.7,5.3-10.6,7.7C57.9,96.6,89.1,87.8,79.1,83.7 M39.1,54.8
	c0,0-17.1,4.1-5.9,5.3c4.7,0.6,14.1,0.6,23,0c7.1-0.6,14.1-1.8,14.1-1.8s-2.4,1.2-4.1,2.4c-17.7,4.7-51.8,2.4-41.8-2.4
	C32.6,54.2,39.1,54.8,39.1,54.8 M70.3,71.9c17.7-9.4,9.4-18.2,4.1-17.1C72.6,55.4,72,56,72,56s0.6-0.6,1.8-1.2
	C85,50.7,93.8,66,70.3,71.9C70.3,72.5,70.3,72.5,70.3,71.9"/>
<path fill-rule="evenodd" clip-rule="evenodd" fill="#E76F00" d="M59.7,3c0,0,10,10-9.4,24.7c-15.3,11.8-3.5,18.8,0,26.5
	c-8.8-7.7-15.9-14.7-11.2-21.2C45.6,23.1,63.8,18.9,59.7,3"/>
<path fill-rule="evenodd" clip-rule="evenodd" fill="#5382A1" d="M40.9,96.6C57.9,97.8,84.4,96,85,87.8c0,0-1.2,2.9-14.1,5.3
	c-14.7,2.9-33,2.4-43.6,0.6C27.9,94.3,29.7,96,40.9,96.6"/>
</svg>
