<?xml version="1.0" encoding="utf-8"?>
<svg xmlns="http://www.w3.org/2000/svg" width="16" height="16" viewBox="0 0 16 16">
	<path fill="#0e8ac6" fill-rule="evenodd" d="M5.9,12.4c0,0-0.6,0.4,0.4,0.5C7.7,13,8.3,13,9.7,12.7c0,0,0.4,0.2,0.9,0.4C7.5,14.5,3.5,13.1,5.9,12.4
	 M5.6,10.6c0,0-0.7,0.5,0.4,0.6c1.4,0.1,2.5,0.2,4.3-0.2c0,0,0.3,0.3,0.7,0.4C7.1,12.5,2.8,11.5,5.6,10.6"/>
	<path fill="#ed2025" fill-rule="evenodd" d="M8.8,7.7c0.8,0.9-0.2,1.7-0.2,1.7s2-1,1.1-2.3c-0.9-1.2-1.5-1.8,2-3.8C11.7,3.3,6.2,4.6,8.8,7.7"/>
	<path fill="#0e8ac6" fill-rule="evenodd" d="M13,13.7c0,0,0.5,0.4-0.5,0.7c-1.8,0.5-7.6,0.7-9.2,0c-0.6-0.2,0.5-0.6,0.8-0.7c0.4-0.1,0.6-0.1,0.6-0.1
	c-0.6-0.4-4.2,0.9-1.8,1.3C9.4,15.9,14.7,14.4,13,13.7 M6.2,8.8c0,0-2.9,0.7-1,0.9c0.8,0.1,2.4,0.1,3.9,0c1.2-0.1,2.4-0.3,2.4-0.3
	s-0.4,0.2-0.7,0.4c-3,0.8-8.8,0.4-7.1-0.4C5.1,8.7,6.2,8.8,6.2,8.8 M11.5,11.7c3-1.6,1.6-3.1,0.7-2.9C11.9,8.9,11.8,9,11.8,9
	s0.1-0.1,0.3-0.2C14,8.1,15.5,10.7,11.5,11.7C11.5,11.8,11.5,11.8,11.5,11.7"/>
	<path fill="#ed2025" fill-rule="evenodd" d="M9.7,0c0,0,1.7,1.7-1.6,4.2c-2.6,2-0.6,3.2,0,4.5C6.6,7.4,5.4,6.2,6.2,5.1C7.3,3.4,10.4,2.7,9.7,0"/>
	<path fill="#0e8ac6" fill-rule="evenodd" d="M6.5,15.9c2.9,0.2,7.4-0.1,7.5-1.5c0,0-0.2,0.5-2.4,0.9c-2.5,0.5-5.6,0.4-7.4,0.1C4.3,15.5,4.6,15.8,6.5,15.9"/>
</svg>
