<!-- Copyright 2000-2023 JetBrains s.r.o. and contributors. Use of this source code is governed by the Apache 2.0 license. -->
<svg width="16" height="16" viewBox="0 0 16 16" fill="none" xmlns="http://www.w3.org/2000/svg">
    <g clip-path="url(#clip0_8037_14004)">
        <path fill-rule="evenodd" clip-rule="evenodd"
              d="M8.70539 0.593278C8.7862 0.0919017 8.15631 -0.197339 7.82991 0.191264L1.11474 8.18603C0.84131 8.51157 1.07232 9.00875 1.49701 9.00875H5.9959L5.28443 13.4292C5.20373 13.9306 5.83373 14.2197 6.16003 13.831L12.8783 5.82746C13.1516 5.50189 12.9205 5.00486 12.4959 5.00486H7.99429L8.70539 0.593278Z"
              fill="#45322B"/>
        <path fill-rule="evenodd" clip-rule="evenodd"
              d="M7.23358 5.65377C7.04374 5.43042 6.96125 5.13488 7.00793 4.84528L7.43094 2.22101L2.57039 8.00776H5.99596C6.28875 8.00776 6.56681 8.13641 6.75666 8.35971C6.9465 8.58301 7.02902 8.87849 6.98242 9.16807L6.55867 11.8008L11.4231 6.00582H7.99435C7.70152 6.00582 7.42342 5.87713 7.23358 5.65377ZM8.70545 0.593262C8.78626 0.0918865 8.15637 -0.197355 7.82997 0.191248L1.1148 8.18601C0.841371 8.51155 1.07238 9.00873 1.49707 9.00873H5.99596L5.28449 13.4292C5.20379 13.9306 5.8338 14.2197 6.16009 13.8309L12.8783 5.82744C13.1516 5.50188 12.9206 5.00484 12.496 5.00484H7.99435L8.70545 0.593262Z"
              fill="#C77D55"/>
    </g>
    <defs>
        <clipPath id="clip0_8037_14004">
            <rect width="14" height="14" fill="white"/>
        </clipPath>
    </defs>
</svg>
